<!-- <svg xmlns="http://www.w3.org/2000/svg" viewBox="0 0 222.56 52.82"> -->
<svg xmlns="http://www.w3.org/2000/svg" viewBox="0 0 222.56 52.82">
    <path d="M9.66 21.49V7.33h3.12v11.35h7.06v2.81H9.66zM36.39 17.25c-.38.88-.9 1.66-1.57 2.33-.67.67-1.46 1.19-2.39 1.58-.92.38-1.93.58-3.03.58s-2.1-.19-3.02-.58c-.92-.38-1.71-.9-2.38-1.56-.67-.65-1.19-1.42-1.56-2.31-.37-.88-.56-1.83-.56-2.84v-.04c0-1.01.19-1.96.57-2.84.38-.88.9-1.66 1.57-2.33.67-.67 1.46-1.19 2.39-1.58.92-.38 1.93-.58 3.03-.58s2.1.19 3.02.58c.92.38 1.71.9 2.38 1.56.67.65 1.19 1.42 1.56 2.31.37.88.56 1.83.56 2.84v.04c0 1.01-.19 1.96-.57 2.84zm-2.69-2.84c0-.61-.1-1.18-.31-1.72s-.51-1.01-.89-1.42c-.38-.4-.84-.73-1.37-.96-.53-.24-1.1-.35-1.72-.35-.63 0-1.21.11-1.73.34-.52.23-.96.55-1.34.95-.37.4-.66.87-.87 1.41-.21.53-.31 1.1-.31 1.71v.04c0 .61.1 1.18.31 1.72s.51 1.01.89 1.42c.38.4.84.73 1.36.96.52.24 1.1.35 1.73.35.62 0 1.19-.11 1.72-.34.53-.23.97-.55 1.35-.95.37-.4.66-.87.87-1.41.21-.53.31-1.1.31-1.71v-.04zM50.01 21.49l-6.86-9.01v9.01h-3.08V7.33h2.87l6.64 8.72V7.33h3.08V21.5h-2.65zM66.67 21.08c-1.01.44-2.16.66-3.45.66-1.11 0-2.11-.18-3.03-.55-.91-.36-1.69-.87-2.35-1.52-.65-.65-1.16-1.42-1.53-2.31-.36-.89-.55-1.86-.55-2.91v-.04c0-1.01.19-1.96.56-2.84.37-.88.89-1.66 1.55-2.33.66-.67 1.44-1.19 2.35-1.58.9-.38 1.9-.58 2.98-.58.63 0 1.21.04 1.73.13s1 .21 1.45.37c.45.16.86.36 1.25.61.39.24.77.52 1.13.83l-1.96 2.37c-.27-.23-.54-.43-.81-.61s-.55-.32-.84-.45c-.29-.12-.6-.22-.94-.28-.34-.07-.71-.1-1.11-.1-.57 0-1.1.12-1.59.36s-.92.55-1.29.95c-.37.4-.66.87-.87 1.4-.21.53-.31 1.11-.31 1.71v.04c0 .65.1 1.25.31 1.8s.51 1.02.89 1.43c.38.41.84.72 1.36.94.52.22 1.1.33 1.73.33 1.16 0 2.14-.29 2.93-.86v-2.04h-3.14v-2.69h6.15v6.15c-.72.64-1.59 1.17-2.6 1.61zM86.61 10.2v11.29h-3.12V10.2h-4.31V7.33h11.74v2.87h-4.31zM103 21.49l-1.29-3.18h-5.99l-1.29 3.18h-3.18l6.07-14.27h2.87l6.07 14.27H103zm-4.29-10.52l-1.88 4.59h3.76l-1.88-4.59zM109.7 21.49V7.33h3.12v11.35h7.06v2.81H109.7zM122.43 21.49V7.33h3.12v11.35h7.06v2.81h-10.18zM153.94 19.18c-.25.55-.61 1.01-1.07 1.38-.46.37-1 .65-1.63.85-.63.2-1.33.29-2.1.29-1.08 0-2.14-.19-3.18-.56-1.04-.37-1.98-.94-2.83-1.71l1.84-2.21c.65.53 1.31.94 1.99 1.25.68.31 1.43.47 2.24.47.65 0 1.15-.12 1.51-.35.36-.24.54-.56.54-.98v-.04c0-.2-.04-.38-.11-.54-.07-.15-.22-.3-.43-.44-.21-.13-.5-.27-.87-.4s-.86-.28-1.45-.42c-.72-.18-1.37-.37-1.95-.59-.58-.22-1.08-.48-1.48-.8-.41-.32-.72-.71-.94-1.18-.22-.47-.34-1.06-.34-1.76v-.04c0-.65.12-1.23.36-1.75s.58-.97 1.02-1.35c.44-.38.96-.67 1.56-.87.6-.2 1.27-.3 2-.3 1.04 0 1.99.16 2.86.47.87.31 1.67.76 2.4 1.34l-1.62 2.35c-.63-.43-1.25-.77-1.86-1.02-.61-.25-1.21-.37-1.82-.37-.61 0-1.06.12-1.37.35-.3.24-.46.53-.46.88v.04c0 .23.04.43.13.6.09.17.25.32.48.45.23.14.54.26.94.38.4.12.9.26 1.51.43.72.19 1.36.4 1.92.64.56.24 1.03.52 1.42.85.39.33.68.72.87 1.16.2.45.29.98.29 1.6v.04c.01.69-.12 1.31-.37 1.86zM167.78 21.49l-1.29-3.18h-5.99l-1.29 3.18h-3.18l6.07-14.27h2.87l6.07 14.27h-3.26zm-4.29-10.52l-1.88 4.59h3.76l-1.88-4.59zM173.42 21.49V7.33h3.12v11.35h7.06v2.81h-10.18zM186.92 21.49V7.33h3.12v11.35h7.06v2.81h-10.18zM205.03 15.85v5.65h-3.12v-5.59l-5.44-8.58h3.64l3.38 5.69 3.44-5.69h3.54l-5.44 8.52z"></path>
    <g>
        <path d="M48.55 35.29h1.15v9.16h5.75v1.07h-6.91V35.29zM67.34 42.41c-.25.64-.61 1.2-1.07 1.69-.46.49-1.01.87-1.65 1.16-.64.29-1.35.43-2.13.43-.78 0-1.49-.14-2.13-.42-.64-.28-1.19-.66-1.64-1.15-.46-.48-.81-1.04-1.06-1.68-.25-.64-.37-1.31-.37-2.02s.13-1.39.38-2.02c.25-.64.61-1.2 1.07-1.69.46-.49 1.01-.87 1.65-1.16.64-.29 1.35-.43 2.13-.43.78 0 1.49.14 2.13.42.64.28 1.18.66 1.64 1.15.46.48.81 1.04 1.06 1.68.25.64.37 1.31.37 2.02s-.13 1.38-.38 2.02zm-1.12-3.65c-.2-.52-.48-.96-.84-1.34s-.79-.68-1.28-.91c-.49-.22-1.03-.34-1.61-.34-.58 0-1.12.11-1.61.33-.49.22-.91.52-1.26.9s-.63.83-.82 1.34c-.2.51-.3 1.06-.3 1.64 0 .58.1 1.13.3 1.65.2.52.48.96.84 1.34s.79.68 1.28.91c.49.22 1.03.34 1.61.34.58 0 1.12-.11 1.61-.33.49-.22.91-.52 1.26-.9s.63-.82.83-1.34c.2-.51.3-1.06.3-1.64-.01-.58-.11-1.13-.31-1.65zM78.41 35.29h1.12v10.22h-.92l-6.6-8.38v8.38h-1.12V35.29h1.08l6.44 8.19v-8.19zM91.74 42.41c-.26.63-.64 1.17-1.12 1.63-.48.46-1.06.82-1.72 1.08-.67.26-1.4.39-2.2.39h-3.55V35.29h3.55c.8 0 1.53.13 2.2.39.67.26 1.24.62 1.72 1.07.48.46.85 1 1.12 1.62.26.62.39 1.3.39 2.02.01.72-.12 1.39-.39 2.02zm-1.1-3.59c-.2-.5-.48-.93-.85-1.29-.36-.36-.81-.65-1.34-.86-.53-.21-1.11-.31-1.75-.31h-2.4v8.09h2.4c.64 0 1.23-.1 1.75-.31s.97-.49 1.34-.85c.37-.36.65-.79.85-1.28.2-.49.3-1.02.3-1.59 0-.57-.1-1.1-.3-1.6zM104.91 42.41c-.25.64-.61 1.2-1.07 1.69-.46.49-1.01.87-1.65 1.16-.64.29-1.35.43-2.13.43-.78 0-1.49-.14-2.13-.42-.64-.28-1.19-.66-1.64-1.15-.46-.48-.81-1.04-1.06-1.68-.25-.64-.37-1.31-.37-2.02s.13-1.39.38-2.02c.25-.64.61-1.2 1.07-1.69.46-.49 1.01-.87 1.65-1.16.64-.29 1.35-.43 2.13-.43.78 0 1.49.14 2.13.42.64.28 1.18.66 1.64 1.15.46.48.81 1.04 1.06 1.68.25.64.37 1.31.37 2.02-.01.71-.13 1.38-.38 2.02zm-1.12-3.65c-.2-.52-.48-.96-.84-1.34s-.79-.68-1.28-.91c-.49-.22-1.03-.34-1.61-.34-.58 0-1.12.11-1.61.33-.49.22-.91.52-1.26.9s-.63.83-.82 1.34c-.2.51-.3 1.06-.3 1.64 0 .58.1 1.13.3 1.65.2.52.48.96.84 1.34s.79.68 1.28.91c.49.22 1.03.34 1.61.34.58 0 1.12-.11 1.61-.33.49-.22.91-.52 1.26-.9s.63-.82.83-1.34c.2-.51.3-1.06.3-1.64-.01-.58-.11-1.13-.31-1.65zM115.98 35.29h1.13v10.22h-.92l-6.6-8.38v8.38h-1.13V35.29h1.08l6.44 8.19v-8.19zM125.34 41.71v-1.18h4.06v1.18h-4.06zM139.1 35.21h.86v10.3h-1.15v-9.1l-1.93.6-.28-.94 2.5-.86zM150.4 42.38c-.2.68-.49 1.26-.87 1.75-.37.49-.82.87-1.34 1.15s-1.1.41-1.73.41c-.67 0-1.26-.12-1.75-.36-.5-.24-.96-.54-1.4-.9l.67-.89c.42.37.83.65 1.23.83.4.18.83.27 1.28.27.46 0 .88-.11 1.26-.34.38-.22.7-.53.97-.93.27-.39.47-.87.61-1.42.14-.55.21-1.15.2-1.8-.28.45-.66.83-1.12 1.15-.47.32-1.06.48-1.77.48-.53 0-1.01-.08-1.45-.23-.44-.16-.81-.37-1.12-.66-.31-.28-.56-.62-.73-1.01-.17-.39-.26-.82-.26-1.29 0-.49.09-.94.27-1.37.18-.42.43-.79.75-1.11.32-.32.71-.56 1.16-.74.45-.18.95-.27 1.5-.27.58 0 1.1.09 1.53.28.44.19.82.44 1.15.77.2.21.38.43.54.67.16.24.29.52.39.84.11.32.19.68.25 1.08s.09.86.09 1.38c0 .83-.1 1.58-.31 2.26zm-1.28-4.83c-.13-.28-.3-.53-.53-.74-.23-.21-.5-.37-.82-.5-.32-.12-.67-.18-1.05-.18s-.72.07-1.03.2c-.31.13-.57.31-.77.53-.21.22-.37.48-.48.77-.11.29-.17.6-.17.92 0 .33.06.63.18.91.12.27.29.51.51.71.22.2.48.36.8.47.31.11.65.17 1.02.17.39 0 .74-.07 1.06-.2.32-.13.58-.3.8-.52.22-.21.39-.46.5-.74.12-.28.17-.57.17-.86 0-.35-.07-.66-.19-.94zM153.01 35.29h6.94v.86l-4.64 9.36h-1.29l4.62-9.17h-5.62v-1.05zM168.66 37.17c-.38-.32-.76-.57-1.14-.75-.38-.17-.8-.26-1.27-.26s-.89.11-1.26.34-.68.54-.94.94c-.26.4-.46.87-.59 1.42-.14.55-.2 1.16-.2 1.82.14-.2.29-.4.47-.59.18-.19.39-.35.63-.5.24-.14.51-.25.8-.34.3-.09.63-.13 1-.13.48 0 .93.07 1.36.22.43.15.8.36 1.12.63.32.28.58.61.77 1s.28.82.28 1.3c0 .5-.09.95-.28 1.37-.19.42-.45.78-.77 1.08-.33.3-.71.54-1.16.71-.45.17-.93.26-1.45.26-.57 0-1.07-.09-1.53-.28-.45-.18-.84-.44-1.16-.76-.2-.2-.39-.43-.55-.67-.16-.24-.3-.52-.4-.83-.11-.31-.19-.67-.25-1.07s-.09-.87-.09-1.4c0-.78.1-1.51.29-2.18.19-.68.47-1.27.83-1.77s.81-.9 1.34-1.18c.53-.29 1.12-.43 1.8-.43.61 0 1.16.1 1.64.31.48.2.94.49 1.39.86l-.68.88zm-.33 4.26c-.12-.27-.29-.5-.51-.69-.22-.19-.48-.35-.79-.46-.31-.11-.65-.17-1.02-.17-.38 0-.73.06-1.04.19-.32.13-.59.29-.81.5-.22.21-.4.45-.52.72-.12.27-.18.55-.18.84 0 .33.06.64.19.92s.3.53.53.73c.23.21.5.37.82.48.32.12.66.18 1.04.18s.72-.06 1.02-.18c.3-.12.56-.29.77-.5.21-.21.38-.46.5-.75s.18-.6.18-.93c0-.32-.06-.61-.18-.88z"></path>
    </g>
</svg>