<?xml version="1.0" encoding="UTF-8"?>
<svg width="187px" height="22px" viewBox="0 0 187 22" version="1.1" xmlns="http://www.w3.org/2000/svg" xmlns:xlink="http://www.w3.org/1999/xlink">
    <!-- Generator: Sketch 52.6 (67491) - http://www.bohemiancoding.com/sketch -->
    <title>Combined Shape</title>
    <desc>Created with Sketch.</desc>
    <g id="Symbols" stroke="none" stroke-width="1" fill="none" fill-rule="evenodd">
        <g id="Basics-/-Logo" fill="#FF8F00">
            <g id="Group">
                <g id="Logo">
                    <g id="Group-19" transform="translate(0.000000, -0.000000)">
                        <path d="M127.14141,3.966226 L127.14141,9.231046 L140.46461,9.231046 C142.21955,9.231046 144.14323,8.712286 144.14323,6.598746 C144.14323,4.484326 142.21955,3.966226 140.46461,3.966226 L127.14141,3.966226 Z M144.35927,21.364486 L136.16779,12.664146 L127.14141,12.664146 L127.14141,21.359866 L122.10033,21.359866 L122.10033,2.878106 C122.10033,1.583626 123.14929,0.533786 124.44531,0.533786 L140.84851,0.533786 C143.64757,0.533786 149.18717,1.205886 149.18717,6.598746 C149.18717,11.204226 145.14907,12.365386 142.22527,12.606286 L150.46383,21.359866 L144.35927,21.364486 Z M98.81663,13.431814 L110.03751,13.431814 L104.42751,5.229994 L98.81663,13.431814 Z M108.44933,2.877974 C109.70003,4.594854 121.20075,21.359734 121.20075,21.359734 L115.46139,21.359734 L112.38645,16.864474 L96.46769,16.864474 L93.39363,21.359734 L85.08665,21.364574 L75.19193,10.851874 L68.06371,15.586934 L68.06371,21.359734 L63.02109,21.359734 L63.02109,0.533874 L68.06371,0.533874 L68.06371,10.966714 L83.70329,0.579194 L90.65903,0.579194 L79.18867,8.196914 L89.31681,18.954694 C92.54201,14.255494 99.46079,4.187194 100.41823,2.877974 C101.67091,1.161754 102.53463,0.325754 104.42751,0.325754 C106.31951,0.325754 107.19687,1.161754 108.44933,2.877974 Z M2.345024,0.533896 L25.069924,0.533896 L25.069924,3.966336 L5.041564,3.966336 L5.041564,9.230056 L25.069924,9.230056 L25.069924,12.663376 L5.041564,12.663376 L5.041564,21.359756 L4.4e-05,21.359756 L4.4e-05,2.877996 C4.4e-05,1.583516 1.049444,0.533896 2.345024,0.533896 Z M169.921114,9.344412 C174.408674,9.722372 177.710434,11.134112 177.710434,14.880272 C177.710434,20.944352 168.761274,21.779912 164.154034,21.779912 C159.175434,21.779912 153.852974,20.704992 150.420974,19.005932 L151.636034,15.310372 C154.678414,17.073672 159.391694,18.413032 163.888714,18.413032 C166.499014,18.413032 172.620294,18.184452 172.620294,15.373952 C172.620294,14.046252 171.472774,13.302432 168.444914,13.048992 L158.041554,12.171632 C153.085394,11.753852 150.563974,10.023552 150.563974,7.014172 C150.563974,0.948552 159.512914,0.112992 164.120374,0.112992 C167.792174,0.112992 172.735794,0.683012 176.081774,2.085952 L174.832174,5.618932 C171.776594,4.301792 167.346674,3.480312 164.014994,3.480312 C161.681674,3.480312 155.652354,3.708232 155.652354,6.520492 C155.652354,7.659872 156.492094,8.212732 159.518854,8.466392 L169.921114,9.344412 Z M53.916654,9.343334 C58.403334,9.722394 61.705314,11.133034 61.705314,14.880074 C61.705314,20.944154 52.754174,21.779054 48.149574,21.779054 C43.169654,21.779054 37.848734,20.704134 34.415634,19.005954 L35.630034,15.309074 C38.672414,17.073694 43.387014,18.413054 47.884914,18.413054 C50.493014,18.413054 56.615174,18.184474 56.615174,15.373974 C56.615174,14.046054 55.466774,13.302454 52.439574,13.048134 L42.037094,12.171434 C37.080274,11.753874 34.558854,10.023574 34.558854,7.013094 C34.558854,0.947694 43.509554,0.113014 48.115694,0.113014 C51.787714,0.113014 56.731774,0.681934 60.075774,2.084874 L58.827054,5.617854 C55.769934,4.300714 51.342654,3.480334 48.012074,3.480334 C45.676554,3.480334 39.648774,3.708254 39.648774,6.520514 C39.648774,7.659894 40.487194,8.212754 43.513294,8.466414 L53.916654,9.343334 Z M27.64762,21.466786 L27.64762,0.640926 L32.69024,0.640926 L32.69024,21.466786 L27.64762,21.466786 Z M182.326037,7.490956 C184.201219,7.490956 185.720126,5.972296 185.720126,4.098336 C185.720126,2.225036 184.201219,0.705496 182.326037,0.705496 C180.450634,0.705496 178.929746,2.225036 178.929746,4.098336 C178.929746,5.972296 180.450634,7.490956 182.326037,7.490956 Z M182.326037,0.113036 C184.52931,0.113036 186.315754,1.897236 186.315754,4.098336 C186.315754,6.299216 184.52931,8.084516 182.326037,8.084516 C180.122543,8.084516 178.3372,6.299216 178.3372,4.098336 C178.3372,1.897236 180.122543,0.113036 182.326037,0.113036 Z M181.278832,2.675442 L181.278832,3.698442 L182.770875,3.698442 C183.11548,3.698442 183.487831,3.598782 183.487831,3.188922 C183.487831,2.778182 183.11548,2.675442 182.770875,2.675442 L181.278832,2.675442 Z M183.530548,6.056182 L181.99799,4.365042 L181.278832,4.365042 L181.278832,6.056182 L180.296321,6.056182 L180.296321,2.465342 C180.296321,2.213002 180.500883,2.007742 180.752786,2.007742 L182.846182,2.007742 C183.392486,2.007742 184.469461,2.140402 184.469461,3.188922 C184.469461,4.082562 183.684905,4.307622 183.116361,4.355362 L184.717401,6.056182 L183.530548,6.056182 Z" id="Combined-Shape"></path>
                    </g>
                </g>
            </g>
        </g>
    </g>
</svg>