<svg id="Logo_v3" data-name="Logo v3" xmlns="http://www.w3.org/2000/svg" viewBox="0 0 939.37 544.34"><defs><style>.cls-1,.cls-2{fill:#004c90;}.cls-1,.cls-3,.cls-4{fill-rule:evenodd;}.cls-3{fill:#d40a10;}.cls-4{fill:#fff;}</style></defs><g id="_Path_" data-name="&lt;Path&gt;"><path class="cls-1" d="M512.63,291.27c-241.39,0-437.08,107.26-437.08,239.57S271.24,770.41,512.63,770.41,949.71,663.16,949.71,530.84,754,291.27,512.63,291.27Z" transform="translate(-42.95 -258.67)"/></g><g id="_Path_2" data-name="&lt;Path&gt;"><ellipse class="cls-2" cx="469.68" cy="272.17" rx="469.68" ry="272.17"/></g><g id="_Path_3" data-name="&lt;Path&gt;"><path class="cls-3" d="M512.63,291.26c-241.4,0-437.08,107.27-437.08,239.57S271.23,770.41,512.63,770.41,949.71,663.16,949.71,530.83,754,291.26,512.63,291.26Z" transform="translate(-42.95 -258.67)"/></g><g id="_Path_4" data-name="&lt;Path&gt;"><path class="cls-4" d="M311.23,602.15V413.2c0-11.14,6.91-15.73,6.91-15.73H256.88s6.62,4.59,6.62,15.73c0,7.24,0,82.64,0,82.64H213.26s0-75.4,0-82.64c0-11.14,6.63-15.73,6.63-15.73H158.77s6.74,4.59,6.74,15.73v189c0,11.17-6.83,15.79-6.83,15.79l61.19,0s-6.62-4.6-6.63-15.75c0-7.25-.07-57.11,0-87.75H263.5v87.74c0,11.15-6.71,15.78-6.71,15.78H318S311.23,613.33,311.23,602.15Z" transform="translate(-42.95 -258.67)"/></g><g id="_Path_5" data-name="&lt;Path&gt;"><path class="cls-4" d="M461.16,542.19v-.07c-.09-43.45-26.42-78.63-63.61-78.63s-67.43,35.3-67.43,78.85,30.19,78.84,67.43,78.84c31.57,0,56.2-25.33,63.55-59.56H444s-2.9,13.51-14.23,27.44c-9.63,11.84-22.7,12.12-31.68,10.93-20.32-2.72-22.39-25.45-22.31-57.83Z" transform="translate(-42.95 -258.67)"/></g><g id="_Path_6" data-name="&lt;Path&gt;"><path class="cls-3" d="M398.1,481.9c-14.76,0-20.3,17.66-21.25,43.61l43.17,0C419.74,498.93,413,481.9,398.1,481.9Z" transform="translate(-42.95 -258.67)"/></g><g id="_Path_7" data-name="&lt;Path&gt;"><path class="cls-4" d="M574.15,468c-1.68-.41-10.65-1.44-26.59-1.4l-74.45,0s6.8,4.58,6.8,15.74V602.15c0,11.17-6.62,15.8-6.62,15.8h60.93s-6.6-4.63-6.6-15.8V492.86a18.21,18.21,0,0,1,4.7-11.15c9.75-10.33,23.83-6,23.83-6a19.2,19.2,0,0,0-7.86,15.2c0,11.13,10.27,20.15,23,20.15s23-9,23-20.15C594.22,481.7,587.24,471.2,574.15,468Z" transform="translate(-42.95 -258.67)"/></g><g id="_Path_8" data-name="&lt;Path&gt;"><path class="cls-4" d="M651.08,532s7.93,3,5,10.52l-30.06,75.43L601,542.49s-3.37-6.65,4.93-10.52h-65s7.21,3.16,9.76,10.48l43,130.33h30.74l51.24-130.29A19.55,19.55,0,0,1,688.59,532Z" transform="translate(-42.95 -258.67)"/></g><g id="_Path_9" data-name="&lt;Path&gt;"><path class="cls-4" d="M740.62,602.15V482.39c0-11.15,6.59-15.75,6.59-15.75H688s6.61,4.6,6.61,15.75V602.15c0,11.17-6.61,15.77-6.61,15.77h59.2S740.62,613.32,740.62,602.15Z" transform="translate(-42.95 -258.67)"/></g><g id="_Path_10" data-name="&lt;Path&gt;"><path class="cls-4" d="M717.56,414.25c-12.67,0-23,9-23,20.16s10.29,20.16,23,20.16,23-9,23-20.16S730.25,414.25,717.56,414.25Z" transform="translate(-42.95 -258.67)"/></g><g id="_Path_11" data-name="&lt;Path&gt;"><path class="cls-4" d="M878.12,544c-6.41-5.25-12.26-10.41-29.41-17.88-10.26-4.48-20.51-7.8-26.58-10.81-8.15-3.53-13.72-10.58-13.72-18.7,0-11.65,11.45-21.1,25.59-21.1a30,30,0,0,1,8.69,1.25l-1.59.92a19.16,19.16,0,0,0-7.85,15.2c0,11.13,10.29,20.15,23,20.15s22.95-9,22.95-20.15c0-7.33-5.13-14.55-13.29-19.42-10.53-6.26-23.82-10-38.27-10-34.27,0-62,20.95-62,46.81,0,16.38,11.21,30.8,28.09,39.15h.23c12.13,6.3,24.12,9.89,32.24,14.06s13.4,11.33,13.4,19.35c0,13-14,23.55-31.29,23.55a39.1,39.1,0,0,1-17.56-4.15c6-2.56,13-7.8,13-18,0-11.13-10.29-20.15-23-20.15-9.55,0-17.73,5.11-21.2,12.39,0,0-2.68,6.09-1.22,12.12a36.23,36.23,0,0,0,2,5.64c7.53,15.23,25.93,25.12,62.65,26.05,40.92-.92,68.59-21.15,68.59-46.76C891.55,562.31,887.73,552,878.12,544Z" transform="translate(-42.95 -258.67)"/></g><g id="_Path_12" data-name="&lt;Path&gt;"><path class="cls-4" d="M280.08,667.81C273,665.06,270,663.53,270,660.06c0-2.75,2.58-5.24,7.89-5.24a25.43,25.43,0,0,1,11.3,2.58l2.74-9.84a31.71,31.71,0,0,0-13.88-2.74c-12.73,0-20.56,7-20.56,16.29,0,8,6,13,15,16.21,6.54,2.26,9.12,4.28,9.12,7.58,0,3.64-3,6-8.63,6a31.1,31.1,0,0,1-13.63-3.38l-2.51,10.08c3.07,1.69,9.2,3.38,15.41,3.38,14.92,0,21.86-7.73,21.86-16.85C294.12,676.36,289.68,671.35,280.08,667.81Z" transform="translate(-42.95 -258.67)"/></g><g id="_Compound_Path_" data-name="&lt;Compound Path&gt;"><path class="cls-4" d="M336.83,649.74c-3.63-3-9.12-4.43-16.7-4.43a100.48,100.48,0,0,0-16.62,1.12v53.64H315.7V680.55a21.25,21.25,0,0,0,4.19.32c7.27,0,13.55-1.85,17.75-5.73,3.22-3,4.92-7.5,4.92-12.9A15.53,15.53,0,0,0,336.83,649.74Zm-17,21.7a19.53,19.53,0,0,1-4.11-.32V655.06a22.46,22.46,0,0,1,5.08-.4c6.21,0,9.6,3,9.6,8C330.38,668.13,326.35,671.44,319.81,671.44Z" transform="translate(-42.95 -258.67)"/></g><g id="_Compound_Path_2" data-name="&lt;Compound Path&gt;"><path class="cls-4" d="M374.16,644.82c-16,0-26.46,12.18-26.46,28.47,0,15.49,9.52,27.66,25.57,27.66h.08c15.89,0,26.61-10.72,26.61-28.63C400,657.32,390.85,644.82,374.16,644.82Zm-.33,46.38h-.08c-8.23,0-13.15-8-13.15-18.23s4.77-18.4,13.23-18.4,13.07,8.4,13.07,18.16C386.9,683.37,382.14,691.2,373.83,691.2Z" transform="translate(-42.95 -258.67)"/></g><g id="_Compound_Path_3" data-name="&lt;Compound Path&gt;"><path class="cls-4" d="M445.53,684.66c-1.38-5-3.48-8.54-7.27-10.08v-.24a14.4,14.4,0,0,0,9.6-13.31c0-5-1.78-8.79-5.08-11.38-3.88-3.13-9.52-4.34-17.58-4.34a95,95,0,0,0-16.38,1.21v53.55H421V678.69h3.63c5.08.08,7.42,1.86,8.95,8.72,1.54,6.69,2.91,11.13,3.71,12.66h12.59C448.82,698,447.22,690.87,445.53,684.66Zm-19.69-14.84H421V654.9a24.39,24.39,0,0,1,5.57-.41c5.64,0,9,2.58,9,7.51C435.61,666.76,432,669.82,425.84,669.82Z" transform="translate(-42.95 -258.67)"/></g><g id="_Path_13" data-name="&lt;Path&gt;"><polygon class="cls-4" points="409.84 387.04 409.84 397.37 424.51 397.37 424.51 441.4 436.77 441.4 436.77 397.37 451.62 397.37 451.62 387.04 409.84 387.04"/></g><g id="_Path_14" data-name="&lt;Path&gt;"><path class="cls-4" d="M522.31,667.81c-7.1-2.75-10.09-4.28-10.09-7.75,0-2.75,2.59-5.24,7.91-5.24a25.38,25.38,0,0,1,11.29,2.58l2.74-9.84a31.69,31.69,0,0,0-13.87-2.74c-12.74,0-20.56,7-20.56,16.29,0,8,6,13,15,16.21,6.53,2.26,9.11,4.28,9.11,7.58,0,3.64-3,6-8.63,6a31.14,31.14,0,0,1-13.63-3.38l-2.5,10.08c3.07,1.69,9.19,3.38,15.41,3.38,14.91,0,21.85-7.73,21.85-16.85C536.34,676.36,531.9,671.35,522.31,667.81Z" transform="translate(-42.95 -258.67)"/></g></svg>