<?xml version="1.0" encoding="utf-8"?>
<!-- Generator: Adobe Illustrator 23.0.4, SVG Export Plug-In . SVG Version: 6.00 Build 0)  -->
<svg version="1.1" id="Calque_1" xmlns="http://www.w3.org/2000/svg" xmlns:xlink="http://www.w3.org/1999/xlink" x="0px" y="0px"
	 viewBox="0 0 190 65" style="enable-background:new 0 0 190 65;" xml:space="preserve">
<style type="text/css">
	.st0{fill:#0071BA;}
	.st1{fill:#F52135;}
</style>
<g>
	<g>
		<polygon class="st0" points="180.2,34.2 186.1,46.4 177.3,46.4 172.5,36.7 		"/>
		<polygon class="st0" points="67.9,37.8 87,37.8 91.3,46.4 100,46.4 79.3,3.1 73.2,3.1 52.5,46.4 61.2,46.4 76.2,16.2 83.5,30.2 
			71.7,30.2 		"/>
		<polygon class="st0" points="164.9,21.5 162.3,16.2 147.3,46.4 138.5,46.4 159.3,3.1 165.4,3.1 175.9,25 		"/>
		<polygon class="st1" points="162.3,38.7 187.5,30.4 162.3,22.1 		"/>
		<path class="st0" d="M100.4,30.2c0,9.4,8.7,17,18.1,17s17.9-7.6,17.9-17V2.9h-9.2v27.4c0,6.4-4.3,9.4-8.8,9.4
			c-4.4,0-9.2-2.9-9.2-9.4C109.2,30.2,100.4,30.2,100.4,30.2z"/>
		<polygon class="st0" points="11.8,3.1 2.6,3.1 2.6,46.4 11.8,46.4 		"/>
		<path class="st0" d="M14.3,10.3h12.5c3.6,0,6.5,2.9,6.5,6.5s-2.9,6.5-6.5,6.5H14.3l21.5,23h12.1L32,27.9c6-0.9,10.5-6,10.5-12.2
			c0-6.8-5.5-12.6-12.4-12.6H14.3V10.3z"/>
	</g>
	<g>
		<path class="st0" d="M8.4,62H7.3l-3.6-7v7H2.5v-9h1.1l3.6,7v-7h1.1L8.4,62L8.4,62z"/>
		<path class="st0" d="M10.9,54.5c0-0.4,0.2-0.8,0.5-1.1s0.7-0.5,1.1-0.5s0.8,0.2,1.1,0.5S14,54,14,54.5c0,0.4-0.2,0.8-0.5,1.1
			S12.8,56,12.4,56s-0.8-0.2-1.1-0.5C11,55.2,10.9,54.9,10.9,54.5z M12.5,55.2c0.2,0,0.4-0.1,0.6-0.2c0.2-0.1,0.2-0.3,0.2-0.6
			c0-0.2-0.1-0.4-0.2-0.6c-0.2-0.2-0.3-0.2-0.6-0.2c-0.2,0-0.4,0.1-0.6,0.2c-0.2,0.2-0.2,0.4-0.2,0.6s0.1,0.4,0.2,0.6
			C12.1,55.2,12.2,55.2,12.5,55.2z"/>
		<path class="st0" d="M23.1,62H22v-7.6l-1.9,0.8v-1l2.8-1.2h0.2V62z"/>
		<path class="st0" d="M31.8,62h-1.1v-9h1.1V62z"/>
		<path class="st0" d="M40.3,62h-1.1l-3.6-7v7h-1.1v-9h1.1l3.6,7v-7h1.1V62z"/>
		<path class="st0" d="M50.9,57.8h-3.2V61h3.7v1h-4.9v-9h4.8v1h-3.7v2.9h3.2L50.9,57.8L50.9,57.8z"/>
		<path class="st0" d="M58.9,53v6.4c0,0.9-0.3,1.5-0.7,2c-0.5,0.5-1.2,0.7-2,0.7c-0.9,0-1.6-0.2-2-0.7c-0.5-0.5-0.7-1.1-0.7-2V53
			h1.1v6.4c0,0.6,0.1,1.1,0.4,1.4c0.3,0.3,0.7,0.4,1.2,0.4c0.6,0,1-0.1,1.3-0.4s0.4-0.8,0.4-1.4V53H58.9z"/>
		<path class="st0" d="M64.1,58.4h-1.6V62h-1.1v-9h2.5c0.9,0,1.6,0.2,2,0.7s0.7,1.1,0.7,2c0,0.6-0.1,1-0.4,1.5
			c-0.2,0.4-0.6,0.7-1,0.9l1.7,3.8v0.1h-1.2L64.1,58.4z M62.5,57.4h1.4c0.5,0,0.9-0.2,1.1-0.5c0.3-0.3,0.4-0.7,0.4-1.2
			c0-1.2-0.5-1.7-1.6-1.7h-1.4L62.5,57.4L62.5,57.4z"/>
		<path class="st0" d="M74.6,58.3c0,1.2-0.3,2.2-0.8,2.8c-0.5,0.7-1.3,1-2.2,1c-0.9,0-1.7-0.3-2.2-1c-0.5-0.6-0.8-1.6-0.8-2.7v-1.7
			c0-1.2,0.3-2.2,0.8-2.8c0.5-0.7,1.3-1,2.2-1c1,0,1.7,0.3,2.2,1s0.8,1.6,0.8,2.8C74.6,56.6,74.6,58.3,74.6,58.3z M73.5,56.6
			c0-1-0.2-1.7-0.5-2.1c-0.3-0.5-0.8-0.7-1.4-0.7s-1.1,0.2-1.4,0.7s-0.5,1.2-0.5,2.1v1.6c0,0.9,0.2,1.6,0.5,2.1S71,61,71.6,61
			s1.1-0.2,1.4-0.7c0.3-0.4,0.5-1.1,0.5-2.1V56.6z"/>
		<path class="st0" d="M78.2,58.5V62H77v-9h2.9c0.8,0,1.5,0.3,2,0.8s0.7,1.2,0.7,2c0,0.9-0.2,1.5-0.7,2s-1.1,0.7-1.9,0.7H78.2
			L78.2,58.5z M78.2,57.5h1.7c0.5,0,0.9-0.2,1.2-0.5c0.3-0.3,0.4-0.7,0.4-1.3c0-0.5-0.1-1-0.4-1.3s-0.7-0.5-1.1-0.5h-1.7L78.2,57.5
			L78.2,57.5z"/>
		<path class="st0" d="M89.1,57.8h-3.2V61h3.7v1h-4.9v-9h4.8v1h-3.7v2.9H89L89.1,57.8L89.1,57.8z"/>
		<path class="st0" d="M99.5,58h-3.1v4h-1.1v-9h4.7v1h-3.6V57h3.1V58L99.5,58z"/>
		<path class="st0" d="M108,58.3c0,1.2-0.3,2.2-0.8,2.8c-0.5,0.7-1.3,1-2.2,1c-0.9,0-1.7-0.3-2.2-1c-0.5-0.6-0.8-1.6-0.8-2.7v-1.7
			c0-1.2,0.3-2.2,0.8-2.8c0.5-0.7,1.3-1,2.2-1c1,0,1.7,0.3,2.2,1s0.8,1.6,0.8,2.8V58.3z M106.8,56.6c0-1-0.2-1.7-0.5-2.1
			c-0.3-0.5-0.8-0.7-1.4-0.7s-1.1,0.2-1.4,0.7s-0.5,1.2-0.5,2.1v1.6c0,0.9,0.2,1.6,0.5,2.1s0.8,0.7,1.4,0.7s1.1-0.2,1.4-0.7
			c0.3-0.4,0.5-1.1,0.5-2.1V56.6L106.8,56.6z"/>
		<path class="st0" d="M113.1,58.4h-1.6V62h-1.1v-9h2.5c0.9,0,1.6,0.2,2,0.7s0.7,1.1,0.7,2c0,0.6-0.1,1-0.4,1.5
			c-0.2,0.4-0.6,0.7-1,0.9l1.7,3.8v0.1h-1.2L113.1,58.4z M111.5,57.4h1.4c0.5,0,0.9-0.2,1.1-0.5c0.3-0.3,0.4-0.7,0.4-1.2
			c0-1.2-0.5-1.7-1.6-1.7h-1.4L111.5,57.4L111.5,57.4z"/>
		<path class="st0" d="M122.5,58.5V62h-1.1v-9h2.9c0.8,0,1.5,0.3,2,0.8s0.7,1.2,0.7,2c0,0.9-0.2,1.5-0.7,2s-1.1,0.7-1.9,0.7H122.5
			L122.5,58.5z M122.5,57.5h1.7c0.5,0,0.9-0.2,1.2-0.5s0.4-0.7,0.4-1.3c0-0.5-0.1-1-0.4-1.3s-0.7-0.5-1.1-0.5h-1.7L122.5,57.5
			L122.5,57.5z"/>
		<path class="st0" d="M132.5,59.6h-3.1l-0.7,2.4h-1.2l2.9-9h1l2.9,9h-1.2L132.5,59.6z M129.7,58.6h2.5l-1.2-4.1L129.7,58.6z"/>
		<path class="st0" d="M141.8,59c0,1-0.3,1.7-0.8,2.2s-1.2,0.8-2.1,0.8c-0.9,0-1.6-0.3-2.2-1c-0.5-0.7-0.8-1.6-0.8-2.8v-1.6
			c0-1.2,0.3-2.1,0.8-2.8s1.3-1,2.2-1s1.5,0.3,2,0.8s0.7,1.3,0.8,2.2h-1.1c-0.1-0.7-0.2-1.3-0.5-1.6s-0.7-0.5-1.2-0.5
			c-0.6,0-1.1,0.2-1.4,0.7c-0.3,0.5-0.5,1.2-0.5,2.1v1.7c0,0.9,0.2,1.6,0.5,2.1s0.8,0.7,1.3,0.7c0.6,0,1-0.1,1.3-0.4
			s0.4-0.8,0.5-1.6C140.7,59,141.8,59,141.8,59z"/>
		<path class="st0" d="M146.1,57.9l-0.9,1.1V62H144v-9h1.1v4.4l0.7-1l2.4-3.4h1.4l-2.9,4l3.2,5.1h-1.4L146.1,57.9z"/>
		<path class="st0" d="M155.8,59.6h-3.1L152,62h-1.2l2.9-9h1l2.9,9h-1.2L155.8,59.6z M153.1,58.6h2.5l-1.2-4.1L153.1,58.6z"/>
		<path class="st0" d="M165.2,60.9L165,61c-0.6,0.7-1.4,1-2.5,1c-1,0-1.7-0.3-2.3-1c-0.6-0.6-0.8-1.6-0.9-2.7v-1.8
			c0-1.3,0.3-2.2,0.8-2.8s1.3-0.9,2.3-0.9c0.9,0,1.5,0.2,2,0.7s0.8,1.2,0.8,2h-1.1c0-0.6-0.2-1-0.5-1.3s-0.7-0.5-1.2-0.5
			c-0.6,0-1.1,0.2-1.4,0.6c-0.3,0.4-0.5,1.1-0.5,2v1.8c0,0.9,0.2,1.6,0.5,2.1s0.8,0.7,1.5,0.7c0.6,0,1.1-0.1,1.4-0.4l0.2-0.2v-1.9
			h-1.6v-1h2.8v3.4H165.2z"/>
		<path class="st0" d="M168.9,62h-1.1v-9h1.1V62z"/>
		<path class="st0" d="M177.5,62h-1.1l-3.6-7v7h-1.1v-9h1.1l3.6,7v-7h1.1V62z"/>
		<path class="st0" d="M185.8,60.9l-0.2,0.2c-0.6,0.7-1.4,1-2.5,1c-1,0-1.7-0.3-2.3-1c-0.6-0.6-0.8-1.6-0.9-2.7v-1.8
			c0-1.3,0.3-2.2,0.8-2.8s1.3-0.9,2.3-0.9c0.9,0,1.5,0.2,2,0.7s0.8,1.2,0.8,2h-1.1c0-0.6-0.2-1-0.5-1.3s-0.7-0.5-1.2-0.5
			c-0.6,0-1.1,0.2-1.4,0.6c-0.3,0.4-0.5,1.1-0.5,2v1.8c0,0.9,0.2,1.6,0.5,2.1s0.8,0.7,1.5,0.7c0.6,0,1.1-0.1,1.4-0.4l0.2-0.2v-1.9
			H183v-1h2.8V60.9z"/>
	</g>
</g>
</svg>
