<?xml version="1.0" encoding="utf-8"?>
<!-- Generator: Adobe Illustrator 19.2.1, SVG Export Plug-In . SVG Version: 6.00 Build 0)  -->
<svg version="1.1" id="layer" xmlns="http://www.w3.org/2000/svg" xmlns:xlink="http://www.w3.org/1999/xlink" x="0px" y="0px"
	 viewBox="0 200 652 252" style="enable-background:new 0 200 652 252;" xml:space="preserve">
<style type="text/css">
	.st0{fill:#EE3124;}
</style>
<path class="st0" d="M27,352.2c-1.7,37,24.7,53.1,60.6,53.1c53.8,0,58-33,58-43.4c0-24.9-17.9-34.2-39.3-40l-37-9.1
	c-12.3-3-23-8.9-23-23.2c0-22.5,18.3-30.2,38.1-30.2c21.5,0,40.6,11.7,41.5,34.9h14.5c0.2-31-26.1-47.2-56.1-47.2
	c-42.7,0-52.3,27.8-52.3,42.7c0,23.6,16.4,32.1,34.2,36.6l33.8,8.3c14,3.4,31.3,10.2,31.3,27.4c0,22.1-24.2,30.8-40.2,30.8
	c-27.6,0-50.2-9.6-49.5-40.8H27z"/>
<path class="st0" d="M279.1,339.6c2.1-20,14.2-39.1,36.1-39.1c21.7,0,34.2,18.9,34.9,39.1H279.1z M363.5,350.9
	c1.1-30.8-13-61.7-48.3-61.7c-34.9,0-49.5,29.1-49.5,58c0,31.3,14.7,58,49.5,58c27.6,0,42.1-14.5,47.8-39.3h-13.4
	c-4.3,16.6-14.9,28.1-34.4,28.1c-25.7,0-35.9-23.6-36.1-43.2H363.5z"/>
<path class="st0" d="M473.4,339.6c2.1-20,14.3-39.1,36.1-39.1c21.7,0,34.2,18.9,34.9,39.1H473.4z M557.8,350.9
	c1.1-30.8-13-61.7-48.3-61.7c-34.9,0-49.5,29.1-49.5,58c0,31.3,14.7,58,49.5,58c27.6,0,42.1-14.5,47.8-39.3H544
	c-4.3,16.6-14.9,28.1-34.4,28.1c-25.7,0-35.9-23.6-36.1-43.2H557.8z"/>
<path class="st0" d="M572.7,402.3h13.4v-58.5c0-22.7,16.6-40.6,40.8-39.3v-13.4c-19.8-0.9-34.7,9.6-41.5,27.2H585v-25.7h-12.3V402.3
	z"/>
<path class="st0" d="M434.5,250.6h-13.4v41.9H402v11.3h19.1v75c-0.2,18.7,6,24.7,23.8,24.7c4,0,7.9-0.4,11.9-0.4v-11.5
	c-3.8,0.4-7.7,0.6-11.5,0.6c-9.6-0.6-10.8-5.7-10.8-14.5v-74h22.3v-11.3h-22.3V250.6z"/>
<rect x="378.4" y="250.6" class="st0" width="13.4" height="151.7"/>
<polygon class="st0" points="174.2,250.6 174.2,315.4 208.5,285.5 251.5,324.4 251.5,402.3 237.9,402.3 237.9,329.1 207.7,301.9 
	174.2,331.1 174.2,402.3 160.8,402.3 160.8,250.6 "/>
</svg>
