<?xml version="1.0" encoding="utf-8"?>
<!-- Generator: Adobe Illustrator 15.1.0, SVG Export Plug-In . SVG Version: 6.00 Build 0)  -->
<!DOCTYPE svg PUBLIC "-//W3C//DTD SVG 1.1//EN" "http://www.w3.org/Graphics/SVG/1.1/DTD/svg11.dtd">
<svg version="1.1" id="Layer_1" xmlns="http://www.w3.org/2000/svg" xmlns:xlink="http://www.w3.org/1999/xlink" x="0px" y="0px"
	 width="222px" height="88px" viewBox="0 0 111 44" enable-background="new 0 0 111 44" xml:space="preserve">
<g>
	<path d="M23.2309 4.00159C28.3609 16.5012 20.0621 25.0669 17.4858 27.6309C17.2845 27.8332 17.2096 27.9267 17.2096 27.9267H10.3853L0.0605469 4.00159H7.89935L14.6702 19.9616C14.6702 19.9616 20.5878 14.2195 15.7258 4.00159H23.2309ZM76.8949 27.9256V17.1563C76.9021 16.1746 76.7769 15.3131 76.4555 14.7853C76.1341 14.276 75.712 13.9598 74.6174 13.9392C72.9427 13.9618 72.0719 14.0963 72.0719 14.0963L72.0688 17.1871V27.9256H65.2487V8.72294V8.08733L76.1874 7.90045C79.4846 7.88197 81.5003 9.21171 82.523 10.9768C83.5601 12.7265 83.7069 14.6292 83.7069 15.9374V27.9246H76.8949V27.9256ZM95.2495 22.0347C93.1968 22.0306 91.4379 20.361 91.4317 18.0157V17.9808C91.441 15.5996 93.1968 13.9351 95.2495 13.9289C97.3052 13.9351 99.058 15.5986 99.0672 17.9808C99.0621 20.3661 97.3052 22.0306 95.2495 22.0347ZM103.292 26.0558C105.361 23.9785 106.366 21.1537 106.366 18.5363C106.366 16.8616 105.954 15.1088 105.117 13.5151H106.238V8.08836L94.7699 8.08014C88.2742 8.56378 85.0705 13.9372 85.0921 18.5045L85.0952 18.5363C85.0952 21.6959 86.5676 25.184 89.6101 27.2572V30.7802H97.5146C98.9789 30.7802 100.166 31.9682 100.166 33.4325C100.166 34.8906 98.9789 36.0766 97.5146 36.0807H94.542V42.8002H97.5198C102.693 42.8002 106.884 38.6057 106.886 33.4335C106.886 30.4383 105.478 27.7716 103.292 26.0558ZM26.755 27.9246V8.72396V8.08836H33.5741V25.2744V27.9246H26.755Z" fill="#E4002C"></path>
	<path d="M33.4839 3.45941C33.4839 5.31591 31.9796 6.81713 30.1251 6.81713C28.2696 6.81713 26.7664 5.31591 26.7664 3.45941C26.7664 1.60393 28.2696 0.101685 30.1251 0.101685C31.9796 0.101685 33.4839 1.60393 33.4839 3.45941ZM56.0946 27.9246V8.72395V8.08835H62.9107V25.0248V27.9246H56.0946ZM62.8788 3.45941C62.8788 5.31591 61.3745 6.81713 59.5201 6.81713C57.6656 6.81713 56.1654 5.31591 56.1654 3.45941C56.1654 1.60393 57.6656 0.101685 59.5201 0.101685C61.3745 0.101685 62.8788 1.60393 62.8788 3.45941Z" fill="#E4002C"></path>
	<path d="M50.3607 17.1984C52.9709 19.2592 54.3756 22.3479 54.3612 25.221L54.3602 25.7734V27.9246H47.7905V25.3565V24.6973C47.7803 22.314 46.0254 20.6495 43.9728 20.6475C43.0979 20.6485 43.2201 20.628 42.7077 20.6577L42.7036 27.9256H35.8855V2.53013V1.89966H42.7036V13.6014V14.0439C43.5097 14.0645 42.7765 14.045 43.6514 14.045H43.829C45.8847 14.0439 47.4712 12.3784 47.4804 9.99516V9.33594V8.08629H53.8057V8.9211V9.47251C53.819 12.209 52.6772 15.1426 50.3607 17.1984ZM109.358 9.33491H109.507C109.68 9.33491 109.822 9.27741 109.822 9.13571C109.822 9.01146 109.731 8.92829 109.532 8.92829C109.448 8.92829 109.392 8.9365 109.358 8.94472V9.33491ZM109.35 10.0978H109.034V8.74551C109.159 8.72087 109.332 8.69623 109.556 8.69623C109.815 8.69623 109.931 8.73833 110.03 8.80404C110.104 8.86257 110.162 8.97039 110.162 9.09464C110.162 9.25174 110.045 9.36777 109.88 9.41809V9.43451C110.013 9.47661 110.087 9.5834 110.129 9.76618C110.171 9.9736 110.195 10.0568 110.229 10.0978H109.888C109.846 10.0486 109.822 9.9315 109.78 9.77439C109.754 9.6255 109.672 9.55876 109.499 9.55876H109.349V10.0978H109.35ZM109.556 8.30603C108.96 8.30603 108.511 8.79583 108.511 9.39344C108.511 9.99927 108.96 10.4798 109.573 10.4798C110.17 10.4891 110.61 9.99927 110.61 9.39344C110.61 8.79583 110.17 8.30603 109.564 8.30603H109.556ZM109.574 8.0329C110.353 8.0329 110.959 8.63872 110.959 9.39344C110.959 10.1646 110.353 10.7622 109.565 10.7622C108.785 10.7622 108.163 10.1646 108.163 9.39344C108.163 8.63872 108.785 8.0329 109.565 8.0329H109.574Z" fill="#E4002C"></path>
	<path d="M39.8531 40.7127L40.8296 42.7571H39.3726L38.5737 41.1408L39.8531 40.7127ZM37.3148 38.5984L36.8815 37.7051L34.3904 42.7571H32.9333L36.3773 35.5231H37.3857L39.1313 39.2001L37.3148 38.5984Z" fill="#0074B9"></path>
	<path d="M36.8806 41.4756L41.0577 40.0853L36.8806 38.6949V41.4756Z" fill="#E4002C"></path>
	<path d="M11.8999 35.519H10.3782V42.754H11.901L11.8999 35.519ZM12.3271 36.7316H14.4044C14.9968 36.7316 15.4774 37.2235 15.4774 37.8201C15.4774 38.4167 14.9968 38.9085 14.4044 38.9085H12.3271L15.9015 42.754H17.9069L15.2577 39.6602C16.2465 39.5102 17.0053 38.6569 17.0053 37.6178C17.0053 36.4739 16.0853 35.519 14.9496 35.519H12.3271V36.7316ZM21.2204 41.3226H24.3779L25.0895 42.7571H26.5456L23.1016 35.5231H22.0943L18.6513 42.7571H20.1063L22.5984 37.7051L23.7957 40.0719H21.8437L21.2204 41.3226ZM26.7304 40.0658C26.7304 41.6368 28.1782 42.9101 29.738 42.9101C31.2977 42.9101 32.7004 41.6389 32.7004 40.0688V35.4882H31.194V40.0688C31.194 41.145 30.4732 41.6389 29.7349 41.6389C28.9956 41.6389 28.2142 41.145 28.2142 40.0668L26.7304 40.0658ZM47.077 40.7055C46.9989 41.2825 46.8346 41.7867 46.3613 42.2303C45.853 42.7037 45.1599 42.9707 44.5202 42.9707C43.2603 42.9707 42.3546 41.9017 42.5538 40.6387C42.7602 39.3264 43.9934 38.2698 45.2965 38.2698C46.122 38.2698 46.7268 38.6826 47.0996 39.3388L46.8346 39.5267C46.5266 38.9198 45.9711 38.543 45.2348 38.543C44.1259 38.543 43.0189 39.5205 42.8464 40.6202C42.6688 41.7498 43.4482 42.6975 44.5818 42.6975C45.0705 42.6975 45.5778 42.4973 45.9998 42.1933C46.4444 41.8596 46.6488 41.4766 46.7453 40.9786H45.1178L45.1609 40.7055H47.077ZM49.8658 42.9101H49.5342L48.3923 40.7424H48.2476L47.9066 42.9101H47.6171L48.3369 38.3314H48.9037C49.2713 38.3314 49.6317 38.3376 49.9049 38.5625C50.1944 38.7935 50.2694 39.158 50.2088 39.5462C50.0835 40.342 49.4695 40.7548 48.7178 40.7424L49.8658 42.9101ZM48.6583 40.4693C48.9417 40.4693 49.2271 40.457 49.488 40.2567C49.7323 40.0801 49.8782 39.807 49.9213 39.5339C49.9747 39.194 49.872 38.8541 49.5691 38.7083C49.3463 38.5923 49.0362 38.6046 48.7712 38.6046H48.5843L48.2907 40.4693H48.6583ZM55.5432 40.6213C55.3409 41.9089 54.0943 42.9717 52.8159 42.9717C51.5375 42.9717 50.6257 41.9089 50.828 40.6213C51.0303 39.3336 52.2707 38.2709 53.5552 38.2709C54.8336 38.2709 55.7465 39.3336 55.5432 40.6213ZM51.1175 40.6213C50.9399 41.7508 51.7254 42.6985 52.859 42.6985C53.9865 42.6985 55.077 41.7446 55.2536 40.6213C55.4312 39.4918 54.6396 38.544 53.5121 38.544C52.3795 38.544 51.2962 39.4918 51.1175 40.6213ZM59.5447 38.3314H59.8343L59.3855 41.186C59.3116 41.6532 59.249 42.0547 58.8814 42.4367C58.5189 42.7889 58.0199 42.9707 57.5619 42.9707C57.1039 42.9707 56.6624 42.7889 56.4098 42.4367C56.1623 42.0537 56.226 41.6532 56.2989 41.186L56.7476 38.3314H57.0372L56.6018 41.1008C56.5371 41.5136 56.4683 41.951 56.6552 42.255C56.8329 42.5466 57.2549 42.6985 57.604 42.6985C57.9531 42.6985 58.4234 42.5466 58.6924 42.255C58.9758 41.951 59.0446 41.5146 59.1093 41.1008L59.5447 38.3314ZM60.5181 42.9101H60.2286L60.9494 38.3314H61.7514C62.1077 38.3314 62.4475 38.3561 62.693 38.5984C62.9332 38.8356 63.0113 39.1817 62.9548 39.54C62.9034 39.8686 62.7197 40.2321 62.4321 40.4447C62.1169 40.688 61.7288 40.7363 61.3735 40.7363H60.8611L60.5181 42.9101ZM61.4279 40.4631C61.7236 40.4631 61.9947 40.4262 62.2627 40.2136C62.4907 40.0319 62.6242 39.7947 62.6663 39.5277C62.7114 39.2422 62.6416 38.9568 62.4393 38.7863C62.2381 38.6107 61.9495 38.6046 61.6723 38.6046H61.1958L60.9032 40.4631H61.4279Z" fill="#0074B9"></path>
</g>
</svg>
